<svg xmlns="http://www.w3.org/2000/svg" width="82" height="70" viewBox="0 0 82 70" fill="none"><path d="M1.83977 42.7143L1.83568 42.7282L1.83235 42.7423C1.25987 45.1754 0.973999 47.6786 0.973999 50.251C0.973999 55.4405 2.63687 59.7313 5.98344 63.078C9.32999 66.4247 13.6209 68.0875 18.8104 68.0875C23.7278 68.0875 27.8748 66.4183 31.2152 63.078C34.5618 59.7313 36.2247 55.4405 36.2247 50.251C36.2247 46.3701 35.2906 43.0296 33.3973 40.2563C31.7278 37.4797 29.3913 35.4294 26.402 34.1124L34.7299 2.25786L34.9028 1.59668H34.2194H17.3328H16.9666L16.8384 1.93986L5.6526 31.9096L5.65182 31.9116C3.82192 36.6975 2.54945 40.3014 1.83977 42.7143ZM46.5891 42.7143L46.585 42.7282L46.5817 42.7423C46.0092 45.1754 45.7233 47.6786 45.7233 50.251C45.7233 55.4405 47.3862 59.7313 50.7328 63.078C54.0795 66.4247 58.3703 68.0875 63.5597 68.0875C68.4774 68.0875 72.6241 66.4183 75.9645 63.078C79.3112 59.7313 80.974 55.4405 80.974 50.251C80.974 46.3701 80.04 43.0297 78.1466 40.2564C76.4774 37.4797 74.1407 35.4294 71.1513 34.1124L79.479 2.25786L79.6521 1.59668H78.9687H62.0822H61.716L61.5877 1.93986L50.402 31.9096L50.4012 31.9114C48.5713 36.6975 47.2988 40.3013 46.5891 42.7143Z" stroke="white" stroke-opacity="0.15" stroke-width="1.94805"></path></svg>